<?xml version="1.0" encoding="UTF-8" ?>
<!DOCTYPE svg PUBLIC "-//W3C//DTD SVG 1.1//EN" "http://www.w3.org/Graphics/SVG/1.1/DTD/svg11.dtd">
<svg width="394pt" height="406pt" viewBox="0 0 394 406" version="1.1" xmlns="http://www.w3.org/2000/svg">
<g id="#fefeffff">
<path fill="#fefeff" opacity="1.00" d=" M 193.30 46.43 C 204.20 45.99 215.90 50.91 221.06 60.96 C 227.57 71.31 226.62 86.18 218.42 95.37 C 207.31 110.13 182.09 109.30 171.55 94.39 C 162.75 82.79 163.95 64.64 174.68 54.68 C 179.23 49.27 186.57 47.29 193.30 46.43 Z" />
<path fill="#fefeff" opacity="1.00" d=" M 192.35 120.41 C 204.48 118.38 217.35 128.29 217.25 140.92 C 223.39 199.29 229.84 257.64 235.93 316.01 C 234.46 333.29 222.50 350.21 205.03 354.03 C 190.98 358.06 175.86 352.18 166.21 341.78 C 157.57 331.81 154.76 317.93 156.24 305.07 C 162.27 250.41 167.97 195.71 174.15 141.06 C 175.03 131.14 182.46 122.21 192.35 120.41 Z" />
</g>
<g id="#133b84ff">
<path fill="#133b84" opacity="1.00" d=" M 179.41 0.00 L 215.59 0.00 C 256.14 4.88 295.51 21.54 325.85 49.14 C 354.31 73.86 374.55 107.42 385.66 143.31 C 390.05 157.34 391.61 171.97 394.00 186.41 L 394.00 222.59 C 390.99 245.08 385.63 267.38 375.95 287.98 C 363.64 317.29 342.73 342.20 318.85 362.85 C 297.10 380.50 271.44 393.33 244.30 400.31 C 234.25 403.31 223.58 403.56 213.50 406.00 L 178.41 406.00 C 154.30 402.91 130.73 395.90 108.98 385.05 C 66.20 362.76 31.59 324.83 14.29 279.70 C 8.87 266.14 5.15 251.95 2.57 237.59 C 1.38 231.97 2.12 225.90 0.00 220.50 L 0.00 184.50 C 0.53 183.39 0.86 182.21 0.99 180.99 C 3.46 157.49 9.48 134.21 19.98 112.99 C 38.63 73.71 70.56 41.15 108.98 20.96 C 130.74 9.18 155.02 3.22 179.41 0.00 M 193.30 46.43 C 186.57 47.29 179.23 49.27 174.68 54.68 C 163.95 64.64 162.75 82.79 171.55 94.39 C 182.09 109.30 207.31 110.13 218.42 95.37 C 226.62 86.18 227.57 71.31 221.06 60.96 C 215.90 50.91 204.20 45.99 193.30 46.43 M 192.35 120.41 C 182.46 122.21 175.03 131.14 174.15 141.06 C 167.97 195.71 162.27 250.41 156.24 305.07 C 154.76 317.93 157.57 331.81 166.21 341.78 C 175.86 352.18 190.98 358.06 205.03 354.03 C 222.50 350.21 234.46 333.29 235.93 316.01 C 229.84 257.64 223.39 199.29 217.25 140.92 C 217.35 128.29 204.48 118.38 192.35 120.41 Z" />
</g>
</svg>
