<?xml version="1.0" encoding="UTF-8" ?>
<!DOCTYPE svg PUBLIC "-//W3C//DTD SVG 1.1//EN" "http://www.w3.org/Graphics/SVG/1.1/DTD/svg11.dtd">
<svg width="418pt" height="131pt" viewBox="0 0 418 131" version="1.1" xmlns="http://www.w3.org/2000/svg">
<g id="#ffffffff">
</g>
<g id="#10a356ff">
<path fill="#10a356" opacity="1.00" d=" M 26.08 0.00 L 79.24 0.00 C 71.97 16.22 63.03 31.68 55.84 47.92 C 69.23 48.18 82.62 47.86 96.01 48.03 C 79.52 69.81 62.45 91.16 45.62 112.68 C 40.54 118.97 35.24 125.08 29.72 131.00 L 28.85 131.00 C 32.75 113.13 38.73 95.80 42.94 78.03 C 28.63 77.92 14.31 78.04 0.00 78.01 L 0.00 74.44 C 2.28 70.22 3.73 65.63 5.15 61.07 C 11.85 40.62 18.95 20.30 26.08 0.00 Z" />
<path fill="#10a356" opacity="1.00" d=" M 134.18 25.10 C 153.78 24.93 173.39 24.93 192.99 25.07 C 191.64 31.36 190.43 37.68 188.76 43.90 C 176.23 44.30 163.67 43.67 151.15 44.11 C 149.98 47.26 149.92 50.67 149.02 53.89 C 160.96 54.76 172.89 55.38 184.83 56.04 C 183.35 62.30 182.27 68.65 180.79 74.91 C 168.57 75.25 156.34 74.74 144.13 75.09 C 141.83 85.81 138.49 96.27 135.83 106.91 C 129.27 107.04 122.72 107.08 116.16 107.03 C 122.54 79.81 127.81 52.30 134.18 25.10 Z" />
<path fill="#10a356" opacity="1.00" d=" M 211.14 25.08 C 218.44 24.96 225.75 24.87 233.06 25.05 C 229.30 41.99 225.45 58.97 222.03 76.00 C 223.28 90.50 244.63 91.50 252.22 81.26 C 258.22 63.83 260.22 45.00 265.25 27.25 C 270.79 22.57 279.31 25.78 286.00 25.06 C 285.95 27.80 286.29 30.67 285.54 33.36 C 282.07 49.18 279.15 65.14 274.67 80.71 C 271.10 91.12 263.50 101.18 252.72 104.69 C 245.26 108.18 236.93 106.85 228.99 106.96 C 220.15 105.48 210.50 102.56 204.95 95.04 C 199.26 87.47 198.81 77.18 201.40 68.33 C 204.26 53.83 207.65 39.44 211.14 25.08 Z" />
<path fill="#10a356" opacity="1.00" d=" M 308.22 25.07 C 314.81 24.93 321.41 24.92 328.02 25.05 C 325.14 45.81 320.55 66.31 316.93 86.95 C 326.57 87.16 336.21 86.85 345.85 87.02 C 344.02 93.62 341.92 100.17 340.76 106.93 C 324.23 107.12 307.69 106.93 291.16 107.03 C 297.21 79.80 302.70 52.42 308.22 25.07 Z" />
<path fill="#10a356" opacity="1.00" d=" M 379.29 25.11 C 385.86 24.90 392.44 24.88 399.02 25.07 C 396.01 45.78 391.38 66.25 387.98 86.91 C 397.98 87.28 407.99 86.85 418.00 86.99 L 418.00 90.54 C 415.36 95.66 416.11 102.27 412.76 106.87 C 396.16 107.15 379.55 107.02 362.95 106.93 C 368.29 79.65 373.87 52.39 379.29 25.11 Z" />
</g>
</svg>
